<?xml version="1.0" encoding="UTF-8"?>
<svg id="Layer_1" xmlns="http://www.w3.org/2000/svg" viewBox="0 0 916.38 1000">
  <path d="M0,125.13c36.62-5.64,69.35-7.06,99.87-16.02C208.89,77.11,317.65,44,425.37,7.91c24.96-8.36,43.74-12.47,68.64-.13,131.29,65.05,271.56,99.42,421.53,114.25,0,24.83,2.09,47.49-.35,69.66-11.77,106.86-13.73,216.35-39.64,319.8-52.72,210.53-185.04,365.07-371.81,474.38-31.44,18.4-57.51,19.26-89.54.11C161.78,835.03,28.68,612.37,9.81,320.26,5.74,257.37,3.43,194.37,0,125.13ZM573.51,373.52c-14.6-34.72-29.19-69.44-43.71-103.97,7.38,1.24,15.25,2.56,35.67,5.99-38.2-35.53-44.45-60.06,3.6-73.99,4.38-1.27,4.34-17.76,6.34-27.14-56.52-11.88-109.08-22.93-164.01-34.47-2.62,8.2-2.86,14.89-6.28,18.75-44.59,50.31-46.55,99.16-8.39,157.05,30.8,46.73,35.7,102.31,1.87,152.67-7.52,11.18-30.14,24.24-38.06,20.41-12.87-6.21-25.74-25.12-26.94-39.64-1.55-18.72,7.09-38.85,13.63-57.57,29.19-83.61,20.06-108.14-48.28-145.48-98.17,26.33-53.99,103.15-64.47,177.35,16.33-15.66,31.96-23.71,33.74-34.11,2.26-13.21-9.61-28.23-10.18-42.67-.84-21.12-3.37-46.59,6.93-62.24,7.21-10.94,43.1-17.71,51.25-10.19,15.43,14.24,25.61,39.6,27.57,61.28,1.63,18.08-10.07,38.23-18.58,56.18-24.6,51.88-20.82,99.51,11.39,148.04,37.18,56.02,30.17,96.82-16.85,148.68-6.92,7.64-13.41,20.77-11.9,30.02,5.14,31.48,13.95,62.36,21.82,95.37h81.71c6.4-48.7-33.38-25.3-61.27-35.44,12.77-22.58,21.76-42.66,34.48-60.02,20.16-27.51,57.44-51.14,61.5-80.06,9.93-70.64,37.61-128.44,81.85-169.29-12.92-28.32-22.69-49.73-28.26-61.96,23.76,14.57,50.52,33.19,79.29,47.92,23.32,11.94,49,19.28,73.7,28.49,18.75,6.99,37.6,13.71,56.4,20.55,3.31-6.1,6.61-12.19,9.92-18.29-20.22-16.06-40.27-32.35-60.72-48.13-28.64-22.1-57.58-43.81-86.39-65.71,50.41-42.88,100.82-85.77,151.23-128.65-3.88-4.66-7.76-9.32-11.64-13.99-63.49-3.13-91.87,60.02-143.01,77.48,1.84,24.37,3.44,45.58,5.04,66.78ZM596.99,809.36c-21.2-13.67-31.71-21.85-43.42-27.58-10.6-5.19-22.5-7.72-33.83-11.43,5.73-13.17,10.21-27.09,17.47-39.36,12.68-21.42,35.26-40.46,39.03-62.94,7.86-46.92-37.69-111.94-84.88-133.6-24.08,36.19-38.18,110.98-19.4,122.31,40.68,24.56,27.99,43.58-2.01,61.19q28.92,105.55,127.04,91.41Z"/>
</svg>