<?xml version="1.0" encoding="UTF-8"?>
<svg id="Layer_1" data-name="Layer 1" xmlns="http://www.w3.org/2000/svg" viewBox="0 0 997.97 998">
  <defs>
    <style>
      .cls-1 {
        fill: #f6ba44;
      }

      .cls-2 {
        fill: #292659;
      }

      .cls-3 {
        fill: #fafafa;
      }
    </style>
  </defs>
  <path class="cls-2" d="M825.93,0c10.89,2.7,21.97,4.06,32.85,7.04,78.51,21.5,130.45,90.95,139.02,170.7l.18,642.68c-9.48,92.53-78.79,168.51-172.85,177.55l-825.13.02V0h825.93ZM750.48,111.36c-15.77,2.29-15.2,22.68-13.75,34.93,2.11,17.77,27.04,18.68,32.03,3.8,1.49-4.45,1.48-17.72.89-22.64-1.21-10.04-8.74-17.6-19.17-16.09ZM587.77,155.22c-19.09,3.14-13.19,47.88,8.82,35.44,9.07-5.13,10.38-38.6-8.82-35.44ZM844.18,193.44c10.19-10.12,3.45-28.8-11.26-29.26-3.63-.11-7,1.23-10.44,2.09-16.04,4.03-60.95,24.53-73.25,22.33-22.47-4.03-49.63-19.52-72.71-24.39-18.8-2.45-27.88,21.56-11.24,31.64,10.7,6.48,40.76,14.69,54.31,19.22,2.05.68,4.09.94,6.23.81l-37.45,55.62c-4.76,14.13,7.31,26.44,21.91,21.88,9.67-3.02,39.19-55.72,42.93-55.58l36.92,52.21c15.24,11.65,32.92-.7,27.28-19.47l-36.82-54.66c13.08-5.39,55.03-13.91,63.61-22.44ZM460.3,215.47c.94.99,6.74,3.4,8.21,3.41,13.15.09,14.87-33.63-4.4-27.74-6.98,2.13-7.69,20.22-3.8,24.32ZM611.63,234.65c1.63.02,3.4.11,4.96-.49,8.89-3.47,36.93-11.54,42.07-15.84,7.18-6.02,6.01-19.2-3.15-22.09-12.63-3.98-50.54,15.19-65.12,17.99l-59.7-19.97c-9.92.9-17.04,8.31-13.77,18.57s40.64,17.13,50.92,21.84c2.39,3.3-25.39,35.43-27.47,42.16-4.15,13.4,11.14,22.93,21.14,14.83,4.48-3.63,15.27-22.6,19.77-28.72,1.16-1.58,8.71-11.98,10-11.09,6.36,8.39,21,36.23,28.88,40.76,13.11,7.53,23.01-5.5,18.18-18.19-1.54-4.04-28.56-38.13-26.7-39.76ZM520.51,222.51c-9.27-8.03-40.91,11.9-52.01,11.94-10.22.03-32.59-13.66-44.44-14.69-8.84-.77-15.4,11.54-7.24,18.07,4.24,3.39,35.07,10.61,35.21,13.23-3.74,8.12-21.83,26.21-21.4,34.18s9.65,12.05,16.07,7.39c4.14-3,19.05-29.9,21.79-29.8,7.56,6.74,16.62,30.36,26.55,31.37,6.99.71,9.74-1.85,10.15-8.93.55-9.5-21.88-32.83-20.27-34.97,8.85-4.12,19.79-5.82,28.49-9.54.94-.4.96-2.06,2.5-2.89,1.01-.55,3.53.35,4.68-.36,2.39-1.48,2.53-12.75-.09-15.01ZM308.16,369.17h25.03v128.27h29.72v-128.27h40.67v-20.34h-40.67v-35.2c0-1.24,2.72-12.11,3.48-13.72,6.95-14.62,39.05-3.28,41.8-5.92l1.56-20.17c-36.8-8.29-73.13-10.18-76.63,36.62-.66,8.8,1.98,29.34-.16,35.82-1.25,3.79-20.1,4.03-24.82,4.12v18.78ZM872.86,273.75h-31.29v86.03c-76.58-48.99-106.74,32.07-91.52,97,12.25,52.27,52.8,52.96,93.07,28.14.48,1.73-.61,12.51.02,12.51h29.72v-223.69ZM195.19,285.13c-93.18,11.13-94.61,186.16-16.8,211.46,55.57,18.07,102.63-8.03,114.93-64.84,15.8-73.01-8-157.39-98.13-146.62ZM566.26,308.16h-31.29v40.67c-3.33,1.87-22.57,2.3-23.45,3.14-.67.64.45,14.37-.01,17.19h23.46v85.25c0,3.81,1.11,15.76,1.7,20.2,4.64,35.13,52.68,28.93,74.76,15.66-1.13-2.75-3.61-17.02-4.64-17.75-5-3.56-37.95,16.7-40.6-11.79-2.7-29.01,2.14-62.13.06-91.57h39.11v-20.34h-39.11v-40.67ZM735.2,427.04c-.91-33.79-4.45-72.11-43.45-80.91-69.71-15.73-94.25,67.56-73.06,119.99,20.16,49.87,76.94,37.36,114.73,16.5l-6.06-18.04c-39.97,14.59-87.53,21.28-82.89-37.54h90.73ZM501.97,352.1c-39.51-14.41-100.87-9.73-91.76,47.19,5.46,34.06,46.56,28.44,63.69,42.68,5.53,4.59,5.6,12.04,4.79,18.75-2.91,23.98-49.61,15.47-65.72,11.68l-4.7,21.9c43.72,12,107.43,13.14,101.75-49.33-1.25-13.72-8.96-23.11-20.91-29.15-14.15-7.15-62.32-12.16-46.45-38.1,10.01-16.36,40.77-6.22,56.24-5.54l3.07-20.08ZM436.43,599.11h-18.77v40.67c-36.15-23.96-53.33,15.2-44.65,47,6.46,23.67,27.26,24.9,45.44,12.46,1.91.72.09,5.56.76,6.26.6.62,14.41-.48,17.22-.01v-106.37ZM203.35,699.23v-42.24h-18.77v32.85c-12.61,1.32-24.91,5.76-33.53-6.36-9.32-13.11-9.75-46.98,2.23-58.56,12.81-12.38,39.99-.03,43.91-2.98,1.16-.88,3.52-12.94,3.03-13.43-1.89-1.86-33.55-5.14-38.32-4.68-52.04,4.98-50.01,97.08-4.58,103.09,16.92,2.24,30.29-3.35,46.01-7.69ZM224.23,641.89c-13.83,14.81-12.19,52.37,8.46,61.62,34.7,15.55,58.61-14.41,49.74-48.18-6.58-25.05-41.98-30.83-58.21-13.45ZM300.98,643.48c-14.76,20.69-9.32,59.7,20.61,63.42,32.19,4,43.88-20.26,39.38-48.76-4.42-28.02-45.47-35.02-59.99-14.67ZM502.13,747.72h-18.77v40.67c-48.81-36.5-60.66,59.57-28.61,66.93,14.49,3.33,19.8-5.42,27.84-5.94,4.54-.29.79,4.12,3.19,4.81,3.68,1.06,11.91-.96,16.36-.1v-106.37ZM409.35,751.16c-7.49,2.28-8.35,17.46,1.62,19.71,18.5,4.16,19.4-26.1-1.62-19.71ZM148.61,814.98h27.37c2.37,0,10.58-4.07,12.9-5.87,14.47-11.16,14.43-43.68-3.66-51.87-1.52-.69-9.87-3.27-10.81-3.27h-46.15v100.11h20.34v-39.11ZM211.18,782.13v71.96h18.77v-53.18c3.73-3.14,21.11-2.34,21.91-3.12.6-.59.58-15.04-1.53-16.53-8.73-1.66-14.16,4.96-19.63,7.12-4.12,1.63-1.55-5.46-2.31-6.25-.59-.62-14.41.48-17.22.01ZM284.34,780.96c-27.9,3.41-36.24,36.23-24.94,58.54,10.7,21.14,48.41,22.38,59.43,1,14.18-27.51.46-63.82-34.49-59.55ZM578.78,821.24c.19-21.18-7.45-41.3-32-40.72-40.11.96-41.69,70.3-7.75,74.99,6.38.88,36.59-2.65,38.06-8.59.13-.51-2.66-9.68-3.09-9.98-1.97-1.43-21.74,8.95-33.34,1.3-5.74-3.79-5.91-10.8-5.68-17h43.8ZM347.05,782.35c-.93-.59-15.32-.51-17.8-.22-2.13.25-2.82-.83-2.15,2.16l25.04,69.61,19.13.26,26.05-72.02c-3.15.61-15.76-.97-17.05.15-2.34,2.03-12.82,48.08-16.58,54.61-3.11-6.42-14.24-53.01-16.64-54.55ZM423.92,854.09v-69.61c0-3.48-18.77-3.48-18.77,0v69.61h18.77ZM591.29,782.13v71.96h18.77v-53.18c3.98-3.41,22.63-2.28,23.47-3.12.59-.59-.43-13.02,0-15.66-9.75-1.75-15.92,2.67-24.24,6.28-1.91-.02-.1-5.56-.79-6.29-.59-.62-14.41.48-17.22.01Z"/>
  <path class="cls-3" d="M195.19,285.13c90.13-10.77,113.93,73.61,98.13,146.62-12.29,56.81-59.35,82.9-114.93,64.84-77.82-25.3-76.38-200.33,16.8-211.46ZM177.32,322.79c-34.46,34.45-30.51,178.05,51.02,150.35,42-14.27,39.78-99.56,26.67-132.95-12.29-31.29-53.63-41.45-77.69-17.4Z"/>
  <path class="cls-3" d="M872.86,273.75v223.69h-29.72c-.63,0,.47-10.78-.02-12.51-40.27,24.82-80.82,24.13-93.07-28.14-15.22-64.93,14.94-145.99,91.52-97v-86.03h31.29ZM842.92,380.33c-53.09-24.04-68.39,7.83-63.72,56.68,4,41.81,29.72,44.15,63.18,27.6l.54-84.28Z"/>
  <path class="cls-1" d="M844.18,193.44c-8.58,8.52-50.53,17.05-63.61,22.44l36.82,54.66c5.65,18.76-12.03,31.11-27.28,19.47l-36.92-52.21c-3.74-.14-33.26,52.56-42.93,55.58-14.6,4.56-26.67-7.75-21.91-21.88l37.45-55.62c-2.14.13-4.18-.12-6.23-.81-13.55-4.53-43.61-12.74-54.31-19.22-16.64-10.08-7.56-34.09,11.24-31.64,23.09,4.88,50.24,20.37,72.71,24.39,12.3,2.2,57.21-18.3,73.25-22.33,3.44-.86,6.8-2.2,10.44-2.09,14.71.46,21.45,19.13,11.26,29.26Z"/>
  <path class="cls-3" d="M735.2,427.04h-90.73c-4.64,58.81,42.92,52.13,82.89,37.54l6.06,18.04c-37.79,20.86-94.58,33.37-114.73-16.5-21.19-52.43,3.34-135.72,73.06-119.99,39,8.8,42.54,47.12,43.45,80.91ZM705.49,406.72c3.69-57.31-61.09-50.02-59.46,1.56l59.46-1.56Z"/>
  <path class="cls-3" d="M308.16,369.17v-18.78c4.71-.1,23.56-.33,24.81-4.12,2.14-6.48-.5-27.02.16-35.82,3.5-46.8,39.83-44.92,76.63-36.62l-1.56,20.17c-2.74,2.64-34.85-8.69-41.8,5.92-.77,1.62-3.48,12.48-3.48,13.72v35.2h40.67v20.34h-40.67v128.27h-29.72v-128.27h-25.03Z"/>
  <path class="cls-3" d="M501.97,352.1l-3.07,20.08c-15.47-.68-46.23-10.83-56.24,5.54-15.87,25.94,32.3,30.95,46.45,38.1,11.95,6.04,19.66,15.43,20.91,29.15,5.68,62.47-58.03,61.33-101.75,49.33l4.7-21.9c16.11,3.78,62.81,12.3,65.72-11.68.81-6.71.74-14.15-4.79-18.75-17.13-14.24-58.24-8.62-63.69-42.68-9.12-56.92,52.24-61.6,91.76-47.19Z"/>
  <path class="cls-3" d="M566.26,308.16v40.67h39.11v20.34h-39.11c2.08,29.44-2.76,62.56-.06,91.57,2.65,28.49,35.6,8.23,40.6,11.79,1.03.73,3.51,15,4.64,17.75-22.08,13.27-70.12,19.47-74.76-15.66-.59-4.44-1.7-16.39-1.7-20.2v-85.25h-23.46c.46-2.82-.65-16.55.01-17.19.88-.85,20.12-1.27,23.45-3.14v-40.67h31.29Z"/>
  <path class="cls-1" d="M611.63,234.65c-1.86,1.63,25.16,35.72,26.7,39.76,4.83,12.7-5.08,25.72-18.18,18.19-7.88-4.53-22.52-32.37-28.88-40.76-1.29-.89-8.84,9.51-10,11.09-4.5,6.12-15.29,25.09-19.77,28.72-10,8.11-25.29-1.43-21.14-14.83,2.09-6.73,29.87-38.86,27.47-42.16-10.29-4.71-47.58-11.33-50.92-21.84s3.86-17.67,13.77-18.57l59.7,19.97c14.58-2.8,52.5-21.97,65.12-17.99,9.16,2.89,10.33,16.07,3.15,22.09-5.14,4.31-33.18,12.38-42.07,15.84-1.55.61-3.33.51-4.96.49Z"/>
  <path class="cls-1" d="M520.51,222.51c2.61,2.26,2.48,13.53.09,15.01-1.15.71-3.67-.19-4.68.36-1.54.84-1.56,2.49-2.5,2.89-8.71,3.71-19.65,5.42-28.49,9.54-1.61,2.14,20.82,25.47,20.27,34.97-.41,7.08-3.15,9.64-10.15,8.93-9.93-1.01-18.99-24.64-26.55-31.37-2.74-.1-17.65,26.79-21.79,29.8-6.43,4.66-15.62.95-16.07-7.39s17.66-26.07,21.4-34.18c-.14-2.62-30.98-9.84-35.21-13.23-8.15-6.53-1.6-18.84,7.24-18.07,11.85,1.03,34.21,14.72,44.44,14.69,11.09-.03,42.73-19.96,52.01-11.94Z"/>
  <path class="cls-3" d="M436.43,599.11v106.37c-2.8-.46-16.62.63-17.22.01-.67-.7,1.15-5.54-.76-6.26-18.18,12.44-38.98,11.22-45.44-12.46-8.68-31.8,8.5-70.96,44.65-47v-40.67h18.77ZM417.46,650.94c-.6-.92-12.33-3.53-14.52-3.31-15.49,1.5-14.83,37.08-6.09,42.3,3.82,2.28,17.93,1.55,20.12-1.56,1.08-1.53,1.51-35.86.49-37.43Z"/>
  <path class="cls-3" d="M502.13,747.72v106.37c-4.45-.86-12.67,1.16-16.36.1-2.4-.69,1.35-5.1-3.19-4.81-8.04.52-13.35,9.26-27.84,5.94-32.05-7.36-20.2-103.43,28.61-66.93v-40.67h18.77ZM483.36,799.34c-6.83-1.18-13.79-4.95-20.25-.68-8.43,5.58-8.71,32.85-1.61,38.97,4.83,4.17,21.86,2.09,21.86-1.52v-36.76Z"/>
  <path class="cls-3" d="M203.35,699.23c-15.72,4.34-29.09,9.93-46.01,7.69-45.43-6.01-47.46-98.11,4.58-103.09,4.77-.46,36.43,2.82,38.32,4.68.49.48-1.87,12.55-3.03,13.43-3.93,2.96-31.1-9.4-43.91,2.98-11.98,11.58-11.56,45.46-2.23,58.56,8.62,12.12,20.91,7.68,33.53,6.36v-32.85h18.77v42.24Z"/>
  <path class="cls-3" d="M148.61,814.98v39.11h-20.34v-100.11h46.15c.93,0,9.29,2.59,10.81,3.27,18.09,8.19,18.14,40.71,3.66,51.87-2.33,1.79-10.54,5.87-12.9,5.87h-27.37ZM148.61,800.9c13.58.53,32,2.64,31.36-16.38-.61-18.16-17.51-16.68-31.36-16.47v32.85Z"/>
  <path class="cls-3" d="M284.34,780.96c34.95-4.27,48.68,32.03,34.49,59.55-11.02,21.38-48.74,20.14-59.43-1-11.29-22.31-2.95-55.14,24.94-58.54ZM285.83,794.95c-19.82,4.37-13.73,61.91,11.97,44.85,10.21-6.77,10.91-49.9-11.97-44.85Z"/>
  <path class="cls-3" d="M224.23,641.89c16.23-17.39,51.63-11.6,58.21,13.45,8.87,33.77-15.04,63.72-49.74,48.18-20.65-9.25-22.29-46.82-8.46-61.62ZM245.15,646.37c-13.57,3.09-18.3,51.8,9,46.56,14.06-2.7,17.63-52.62-9-46.56Z"/>
  <path class="cls-3" d="M300.98,643.48c14.52-20.36,55.57-13.35,59.99,14.67,4.49,28.49-7.19,52.76-39.38,48.76-29.92-3.72-35.36-42.73-20.61-63.42ZM323.36,646.37c-14.79,3.31-17.99,51.8,9.01,46.55,14.08-2.74,17.4-52.46-9.01-46.55Z"/>
  <path class="cls-3" d="M578.78,821.24h-43.8c-.23,6.2-.06,13.22,5.68,17,11.6,7.64,31.37-2.73,33.34-1.3.42.31,3.21,9.47,3.09,9.98-1.47,5.94-31.67,9.48-38.06,8.59-33.94-4.69-32.36-74.04,7.75-74.99,24.54-.59,32.18,19.54,32,40.72ZM561.56,810.28c-1.01-24.55-26.69-21.03-26.59,1.57l26.59-1.57Z"/>
  <path class="cls-3" d="M347.05,782.35c2.4,1.54,13.53,48.13,16.64,54.55,3.76-6.53,14.24-52.58,16.58-54.61,1.29-1.12,13.9.46,17.05-.15l-26.05,72.02-19.13-.26-25.04-69.61c-.67-2.99.02-1.91,2.15-2.16,2.48-.29,16.87-.37,17.8.22Z"/>
  <path class="cls-3" d="M591.29,782.13c2.8.46,16.62-.64,17.22-.01.69.73-1.12,6.27.79,6.29,8.32-3.61,14.49-8.03,24.24-6.28-.43,2.64.59,15.07,0,15.66-.84.84-19.49-.29-23.47,3.12v53.18h-18.77v-71.96Z"/>
  <path class="cls-3" d="M211.18,782.13c2.8.46,16.62-.64,17.22-.01.76.8-1.81,7.89,2.31,6.25,5.46-2.17,10.89-8.78,19.63-7.12,2.11,1.49,2.12,15.94,1.53,16.53-.79.78-18.18-.02-21.91,3.12v53.18h-18.77v-71.96Z"/>
  <path class="cls-1" d="M750.48,111.36c10.43-1.52,17.97,6.05,19.17,16.09.59,4.92.6,18.2-.89,22.64-4.98,14.87-29.92,13.96-32.03-3.8-1.45-12.24-2.02-32.64,13.75-34.93Z"/>
  <path class="cls-3" d="M423.92,854.09h-18.77v-69.61c0-3.48,18.77-3.48,18.77,0v69.61Z"/>
  <path class="cls-1" d="M587.77,155.22c19.2-3.16,17.89,30.31,8.82,35.44-22.01,12.44-27.91-32.3-8.82-35.44Z"/>
  <path class="cls-1" d="M460.3,215.47c-3.89-4.1-3.17-22.19,3.8-24.32,19.27-5.9,17.55,27.83,4.4,27.74-1.47-.01-7.27-2.43-8.21-3.41Z"/>
  <path class="cls-3" d="M409.35,751.16c21.01-6.39,20.12,23.87,1.62,19.71-9.97-2.24-9.1-17.43-1.62-19.71Z"/>
  <path class="cls-2" d="M177.32,322.79c24.06-24.05,65.4-13.88,77.69,17.4,13.11,33.39,15.33,118.68-26.67,132.95-81.53,27.7-85.48-115.9-51.02-150.35Z"/>
  <path class="cls-2" d="M842.92,380.33l-.54,84.28c-33.46,16.54-59.18,14.21-63.18-27.6-4.67-48.84,10.62-80.72,63.72-56.68Z"/>
  <path class="cls-2" d="M705.49,406.72l-59.46,1.56c-1.64-51.58,63.15-58.87,59.46-1.56Z"/>
  <path class="cls-2" d="M417.46,650.94c1.02,1.57.59,35.9-.49,37.43-2.18,3.11-16.3,3.84-20.12,1.56-8.74-5.22-9.4-40.8,6.09-42.3,2.19-.21,13.93,2.4,14.52,3.31Z"/>
  <path class="cls-2" d="M483.36,799.34v36.76c0,3.61-17.03,5.69-21.86,1.52-7.09-6.12-6.82-33.39,1.61-38.97,6.46-4.27,13.42-.5,20.25.68Z"/>
  <path class="cls-2" d="M148.61,800.9v-32.85c13.85-.21,30.74-1.68,31.36,16.47.64,19.01-17.78,16.9-31.36,16.38Z"/>
  <path class="cls-2" d="M285.83,794.95c22.88-5.05,22.17,38.08,11.97,44.85-25.7,17.05-31.79-40.48-11.97-44.85Z"/>
  <path class="cls-2" d="M245.15,646.37c26.63-6.06,23.06,43.87,9,46.56-27.3,5.24-22.57-43.47-9-46.56Z"/>
  <path class="cls-2" d="M323.36,646.37c26.41-5.91,23.09,43.81,9.01,46.55-27,5.25-23.8-43.24-9.01-46.55Z"/>
  <path class="cls-2" d="M561.56,810.28l-26.59,1.57c-.1-22.6,25.58-26.12,26.59-1.57Z"/>
</svg>